<svg width="24" height="29" viewBox="0 0 24 29" fill="none" xmlns="http://www.w3.org/2000/svg">
<path d="M3.10646 19.2387C2.81294 17.9577 2.66533 16.6475 2.66646 15.3333C2.66646 8.54933 6.53713 2.752 11.9998 0.423996C17.4625 2.752 21.3331 8.54933 21.3331 15.3333C21.3331 16.68 21.1811 17.988 20.8931 19.2387L23.5865 21.6333C23.7024 21.7364 23.7787 21.8767 23.8023 22.03C23.8259 22.1834 23.7953 22.3401 23.7158 22.4733L20.4385 27.9347C20.3863 28.0214 20.315 28.0952 20.2301 28.1503C20.1452 28.2055 20.0488 28.2405 19.9483 28.2529C19.8478 28.2652 19.7459 28.2545 19.6501 28.2215C19.5544 28.1886 19.4674 28.1342 19.3958 28.0627L16.3905 25.0573C16.1405 24.8073 15.8014 24.6667 15.4478 24.6667H8.55179C8.1982 24.6667 7.85912 24.8073 7.60913 25.0573L4.60379 28.0627C4.53218 28.1342 4.44521 28.1886 4.34947 28.2215C4.25374 28.2545 4.15175 28.2652 4.05125 28.2529C3.95076 28.2405 3.85439 28.2055 3.76947 28.1503C3.68455 28.0952 3.6133 28.0214 3.56113 27.9347L0.283794 22.4747C0.203895 22.3413 0.17309 22.1843 0.196706 22.0307C0.220322 21.877 0.296874 21.7365 0.413127 21.6333L3.10646 19.2387ZM11.9998 15.3333C12.707 15.3333 13.3853 15.0524 13.8854 14.5523C14.3855 14.0522 14.6665 13.3739 14.6665 12.6667C14.6665 11.9594 14.3855 11.2811 13.8854 10.781C13.3853 10.2809 12.707 10 11.9998 10C11.2926 10 10.6143 10.2809 10.1142 10.781C9.61408 11.2811 9.33313 11.9594 9.33313 12.6667C9.33313 13.3739 9.61408 14.0522 10.1142 14.5523C10.6143 15.0524 11.2926 15.3333 11.9998 15.3333Z" fill="#E72D2D"/>
</svg>
